# xmcd CD database file
#
# Track frame offsets:
#	150
#	20587
#	40387
#	64125
#	78112
#	93937
#	120712
#	137512
#	154462
#	172912
#
# Disc length: 2425 seconds
#
# Revision: 0
# Processed by: cddbd v1.5.1PL2 Copyright (c) Steve Scherf et al.
# Submitted via: CDex 1.51
#
DISCID=7a09770a
DTITLE=Roland Kirk  - The Roland Kirk Quartet meets the Benny Golson Orchestra
DYEAR=1963
DGENRE=Jazz
TTITLE0=Ecclusiastics
TTITLE1=By Myself
TTITLE2=A Nightingale Sang in Berkely Square
TTITLE3=Roland Speaks
TTITLE4=Variations On A Theme Of Hindermith
TTITLE5=I've Got Your Number
TTITLE6=Between The Fourth And The Fifth Step
TTITLE7=April Morning
TTITLE8=Get In The Basement
TTITLE9=Abstract Improvisation (solo)
EXTD=YEAR: 1963
EXTT0=
EXTT1=
EXTT2=
EXTT3=
EXTT4=
EXTT5=
EXTT6=
EXTT7=
EXTT8=
EXTT9=
PLAYORDER=
